<svg width="108" height="57" viewBox="0 0 108 57" fill="none" xmlns="http://www.w3.org/2000/svg">
<path d="M2.8 14H9.52C13.1467 14 15.7867 14.7067 17.44 16.12C19.0933 17.5333 19.92 19.4 19.92 21.72C19.92 23.1867 19.6267 24.48 19.04 25.6C18.48 26.72 17.6933 27.5333 16.68 28.04C17.96 28.7067 18.9733 29.6 19.72 30.72C20.4667 31.8133 20.84 33.44 20.84 35.6C20.84 41.2 16.4267 44 7.6 44H2.8V14ZM9.88 26.2C11.4267 26.2 12.5733 25.9467 13.32 25.44C14.0933 24.9333 14.48 23.8933 14.48 22.32C14.48 20.9333 14.04 19.9867 13.16 19.48C12.3067 18.9467 11.1333 18.68 9.64 18.68H8.48V26.2H9.88ZM9.76 39.32C11.68 39.32 13.0667 38.8533 13.92 37.92C14.7733 36.96 15.2 35.92 15.2 34.8C15.2 33.0667 14.7333 31.92 13.8 31.36C12.8933 30.7733 11.6133 30.48 9.96 30.48H8.68V39.32H9.76ZM22.5113 44L28.8313 14.36L37.1913 14L43.6713 43.76L37.2713 44L36.1913 37.56H29.0313L27.7513 44H22.5113ZM30.1113 32.76H35.1113L32.3513 18.4L30.1113 32.76Z" fill="white"/>
<g filter="url(#filter0_i_113_4)">
<path d="M52.68 44.16C51.88 44.16 51.2 44.1067 50.64 44V40C51.0667 40.1067 51.5467 40.16 52.08 40.16C52.96 40.16 53.6133 39.9467 54.04 39.52C54.4667 39.0667 54.68 38.3867 54.68 37.48V16H59.08V37.36C59.08 39.6533 58.5467 41.36 57.48 42.48C56.44 43.6 54.84 44.16 52.68 44.16ZM68.5859 44.4C66.4259 44.4 64.7726 43.7867 63.6259 42.56C62.4793 41.3333 61.9059 39.6 61.9059 37.36V22.64C61.9059 20.4 62.4793 18.6667 63.6259 17.44C64.7726 16.2133 66.4259 15.6 68.5859 15.6C70.7459 15.6 72.3993 16.2133 73.5459 17.44C74.6926 18.6667 75.2659 20.4 75.2659 22.64V37.36C75.2659 39.6 74.6926 41.3333 73.5459 42.56C72.3993 43.7867 70.7459 44.4 68.5859 44.4ZM68.5859 40.4C70.1059 40.4 70.8659 39.48 70.8659 37.64V22.36C70.8659 20.52 70.1059 19.6 68.5859 19.6C67.0659 19.6 66.3059 20.52 66.3059 22.36V37.64C66.3059 39.48 67.0659 40.4 68.5859 40.4ZM78.2416 16H84.8816C87.1482 16 88.8016 16.5333 89.8416 17.6C90.8816 18.64 91.4016 20.2533 91.4016 22.44V23.56C91.4016 25 91.1616 26.1733 90.6816 27.08C90.2282 27.9867 89.5216 28.64 88.5616 29.04V29.12C90.7482 29.8667 91.8416 31.8133 91.8416 34.96V37.36C91.8416 39.52 91.2682 41.1733 90.1216 42.32C89.0016 43.44 87.3482 44 85.1616 44H78.2416V16ZM84.3616 27.4C85.2416 27.4 85.8949 27.1733 86.3216 26.72C86.7749 26.2667 87.0016 25.5067 87.0016 24.44V22.88C87.0016 21.8667 86.8149 21.1333 86.4416 20.68C86.0949 20.2267 85.5349 20 84.7616 20H82.6416V27.4H84.3616ZM85.1616 40C85.9349 40 86.5082 39.8 86.8816 39.4C87.2549 38.9733 87.4416 38.2533 87.4416 37.24V34.8C87.4416 33.52 87.2149 32.64 86.7616 32.16C86.3349 31.6533 85.6149 31.4 84.6016 31.4H82.6416V40H85.1616ZM100.133 44.4C98.0001 44.4 96.3868 43.8 95.2934 42.6C94.2001 41.3733 93.6534 39.6267 93.6534 37.36V35.76H97.8134V37.68C97.8134 39.4933 98.5734 40.4 100.093 40.4C100.84 40.4 101.4 40.1867 101.773 39.76C102.173 39.3067 102.373 38.5867 102.373 37.6C102.373 36.4267 102.107 35.4 101.573 34.52C101.04 33.6133 100.053 32.5333 98.6134 31.28C96.8001 29.68 95.5334 28.24 94.8134 26.96C94.0934 25.6533 93.7334 24.1867 93.7334 22.56C93.7334 20.3467 94.2934 18.64 95.4134 17.44C96.5334 16.2133 98.1601 15.6 100.293 15.6C102.4 15.6 103.987 16.2133 105.053 17.44C106.147 18.64 106.693 20.3733 106.693 22.64V23.8H102.533V22.36C102.533 21.4 102.347 20.7067 101.973 20.28C101.6 19.8267 101.053 19.6 100.333 19.6C98.8668 19.6 98.1334 20.4933 98.1334 22.28C98.1334 23.2933 98.4001 24.24 98.9334 25.12C99.4934 26 100.493 27.0667 101.933 28.32C103.773 29.92 105.04 31.3733 105.733 32.68C106.427 33.9867 106.773 35.52 106.773 37.28C106.773 39.5733 106.2 41.3333 105.053 42.56C103.933 43.7867 102.293 44.4 100.133 44.4Z" fill="#FF5E5E"/>
</g>
<defs>
<filter id="filter0_i_113_4" x="50.64" y="15.6" width="56.1334" height="32.8" filterUnits="userSpaceOnUse" color-interpolation-filters="sRGB">
<feFlood flood-opacity="0" result="BackgroundImageFix"/>
<feBlend mode="normal" in="SourceGraphic" in2="BackgroundImageFix" result="shape"/>
<feColorMatrix in="SourceAlpha" type="matrix" values="0 0 0 0 0 0 0 0 0 0 0 0 0 0 0 0 0 0 127 0" result="hardAlpha"/>
<feOffset dy="4"/>
<feGaussianBlur stdDeviation="2"/>
<feComposite in2="hardAlpha" operator="arithmetic" k2="-1" k3="1"/>
<feColorMatrix type="matrix" values="0 0 0 0 0 0 0 0 0 0 0 0 0 0 0 0 0 0 0.25 0"/>
<feBlend mode="normal" in2="shape" result="effect1_innerShadow_113_4"/>
</filter>
</defs>
</svg>
